<svg xmlns="http://www.w3.org/2000/svg" version="1.1" xmlns:xlink="http://www.w3.org/1999/xlink" xmlns:svgjs="http://svgjs.dev/svgjs" width="1000" height="1000" viewBox="0 0 1000 1000"><rect width="1000" height="1000" fill="#000000"></rect><g transform="matrix(0.7,0,0,0.7,149.57576906628867,412.59344278190076)"><svg viewBox="0 0 396 99" data-background-color="#ffffff" preserveAspectRatio="xMidYMid meet" height="249" width="1000" xmlns="http://www.w3.org/2000/svg" xmlns:xlink="http://www.w3.org/1999/xlink"><g id="tight-bounds" transform="matrix(1,0,0,1,0.23999349964242356,0.1459073107362201)"><svg viewBox="0 0 395.52 98.70835384049042" height="98.70835384049042" width="395.52"><g><svg viewBox="0 0 634.1955548291749 158.27366310210442" height="98.70835384049042" width="395.52"><g><rect width="10.327990070165049" height="115.09770724863597" x="201.31094153868244" y="21.587977926734226" fill="#ffffff" opacity="1" stroke-width="0" stroke="transparent" fill-opacity="1" class="rect-o-0" data-fill-palette-color="secondary" rx="1%" id="o-0" data-palette-color="#dedede"></rect></g><g transform="matrix(1,0,0,1,238.67555482917484,21.87429063133282)"><svg viewBox="0 0 395.52 114.52508183943878" height="114.52508183943878" width="395.52"><g id="textblocktransform"><svg viewBox="0 0 395.52 114.52508183943878" height="114.52508183943878" width="395.52" id="textblock"><g><svg viewBox="0 0 395.52 114.52508183943878" height="114.52508183943878" width="395.52"><g transform="matrix(1,0,0,1,0,0)"><svg width="395.52" viewBox="3.799999952316284 -36.849998474121094 128.2899932861328 37.14999771118164" height="114.52508183943878" data-palette-color="#dedede"><path d="M5.45 0L5.45 0Q4.8 0 4.3-0.33 3.8-0.65 3.8-1.3L3.8-1.3 3.8-35.35Q3.8-35.95 4.3-36.25 4.8-36.55 5.45-36.55L5.45-36.55Q6.05-36.55 6.58-36.25 7.1-35.95 7.1-35.35L7.1-35.35 7.1-20.4 21.55-20.4 21.55-35.35Q21.55-35.95 22.05-36.25 22.55-36.55 23.2-36.55L23.2-36.55Q23.8-36.55 24.33-36.25 24.85-35.95 24.85-35.35L24.85-35.35 24.85-1.3Q24.85-0.65 24.33-0.33 23.8 0 23.2 0L23.2 0Q22.55 0 22.05-0.33 21.55-0.65 21.55-1.3L21.55-1.3 21.55-17.55 7.1-17.55 7.1-1.3Q7.1-0.65 6.58-0.33 6.05 0 5.45 0ZM31.55 0L31.55 0Q31.15 0 30.7-0.18 30.25-0.35 29.95-0.68 29.65-1 29.65-1.4L29.65-1.4Q29.65-1.6 29.7-1.75L29.7-1.75 40.15-35.7Q40.35-36.3 40.9-36.58 41.45-36.85 42.1-36.85L42.1-36.85Q42.8-36.85 43.37-36.55 43.95-36.25 44.1-35.7L44.1-35.7 54.5-1.75Q54.55-1.6 54.55-1.45L54.55-1.45Q54.55-1.05 54.25-0.73 53.95-0.4 53.5-0.2 53.05 0 52.55 0L52.55 0Q52.15 0 51.8-0.2 51.45-0.4 51.35-0.85L51.35-0.85 49-8.55 35.2-8.55 32.9-0.85Q32.75-0.4 32.4-0.2 32.05 0 31.55 0ZM42.1-31.55L36-11.4 48.15-11.4 42.1-31.55ZM61 0L61 0Q60.34 0 59.84-0.33 59.34-0.65 59.34-1.3L59.34-1.3 59.34-35.3Q59.34-36 59.84-36.27 60.34-36.55 61-36.55L61-36.55Q61.59-36.55 62.05-36.23 62.5-35.9 62.9-35.4 63.3-34.9 63.59-34.25L63.59-34.25 77.09-7.65 77.09-35.35Q77.09-36 77.59-36.27 78.09-36.55 78.75-36.55L78.75-36.55Q79.34-36.55 79.87-36.27 80.4-36 80.4-35.35L80.4-35.35 80.4-1.3Q80.4-0.65 79.87-0.33 79.34 0 78.75 0L78.75 0Q78.05 0 77.5-0.6 76.95-1.2 76.55-1.9L76.55-1.9 62.65-28.95 62.65-1.3Q62.65-0.65 62.12-0.33 61.59 0 61 0ZM105.94 0L86.54 0Q85.99 0 85.67-0.33 85.34-0.65 85.34-1.15L85.34-1.15Q85.34-1.7 85.64-2.3L85.64-2.3 102.29-33.5 87.19-33.5Q86.59-33.5 86.27-33.98 85.94-34.45 85.94-35.05L85.94-35.05Q85.94-35.6 86.24-36.08 86.54-36.55 87.19-36.55L87.19-36.55 105.34-36.55Q105.99-36.55 106.29-36.25 106.59-35.95 106.59-35.5L106.59-35.5Q106.59-34.9 106.19-34.2L106.19-34.2 89.59-3.05 105.94-3.05Q106.59-3.05 106.89-2.58 107.19-2.1 107.19-1.55L107.19-1.55Q107.19-0.95 106.89-0.48 106.59 0 105.94 0L105.94 0ZM121.64 0.3L121.64 0.3Q118.74 0.3 116.39-0.75 114.04-1.8 112.67-4.15 111.29-6.5 111.29-10.4L111.29-10.4 111.29-25.9Q111.29-29.75 112.67-32.1 114.04-34.45 116.37-35.5 118.69-36.55 121.64-36.55L121.64-36.55Q124.59-36.55 126.94-35.5 129.29-34.45 130.69-32.1 132.09-29.75 132.09-25.9L132.09-25.9 132.09-10.4Q132.09-6.5 130.69-4.15 129.29-1.8 126.94-0.75 124.59 0.3 121.64 0.3ZM121.64-2.75L121.64-2.75Q124.99-2.75 126.89-4.6 128.79-6.45 128.79-10.4L128.79-10.4 128.79-25.9Q128.79-29.8 126.89-31.65 124.99-33.5 121.64-33.5L121.64-33.5Q118.29-33.5 116.44-31.65 114.59-29.8 114.59-25.9L114.59-25.9 114.59-10.4Q114.59-6.45 116.44-4.6 118.29-2.75 121.64-2.75Z" opacity="1" transform="matrix(1,0,0,1,0,0)" fill="#ffffff" class="undefined-text-0" data-fill-palette-color="primary" id="text-0"></path></svg></g></svg></g></svg></g></svg></g><g><svg viewBox="0 0 174.27431831835509 158.27366310210442" height="158.27366310210442" width="174.27431831835509"><g><svg xmlns="http://www.w3.org/2000/svg" xmlns:xlink="http://www.w3.org/1999/xlink" version="1.0" x="8" y="0" viewBox="4.667734146118164 4.6859588623046875 90.3050308227539 90.30465698242188" enable-background="new 0 0 100 100" xml:space="preserve" height="158.27366310210442" width="158.27431831835509" class="icon-icon-0" data-fill-palette-color="accent" id="icon-0"><path d="M17.504 35.743c-1.334 8.611 0.522 17.134 5.093 23.382 3.514 4.801 8.413 7.905 13.796 8.739 5.677 0.88 11.253-0.429 15.703-3.685 1.248-0.912 2.36-1.946 3.326-3.076-2.222 0.978-4.814 1.267-7.626 0.831-11.717-1.816-19.673-13.464-17.735-25.964 0.934-6.03 4.384-11.497 9.713-15.397 6.768-4.952 15.953-6.97 25.201-5.537 7.474 1.158 17.67 5.964 25.56 15.213 0 0-22.835-39.421-56.115-20.356C23.689 16.04 18.653 28.323 17.504 35.743z" fill="#ffffff" data-fill-palette-color="accent"></path><path d="M82.544 65.256c1.659-8.555 0.125-17.141-4.207-23.557-3.331-4.931-8.109-8.217-13.457-9.253-5.639-1.094-11.261 0.004-15.83 3.091-1.282 0.863-2.431 1.854-3.44 2.947 2.257-0.894 4.859-1.084 7.652-0.543 11.64 2.257 19.151 14.196 16.744 26.616-1.161 5.989-4.815 11.324-10.288 15.019-6.949 4.692-16.205 6.364-25.393 4.582C26.902 82.719 16.894 77.532 9.358 67.992c0 0 21.331 40.255 55.307 22.457C75.621 84.712 81.115 72.628 82.544 65.256z" fill="#ffffff" data-fill-palette-color="accent"></path><path d="M35.726 82.88c8.611 1.334 17.133-0.522 23.381-5.094 4.801-3.514 7.905-8.413 8.74-13.796 0.879-5.676-0.429-11.253-3.686-15.702-0.912-1.248-1.946-2.36-3.076-3.327 0.979 2.222 1.267 4.815 0.831 7.626-1.816 11.717-13.463 19.673-25.965 17.736-6.029-0.934-11.497-4.385-15.395-9.713-4.952-6.768-6.971-15.954-5.538-25.202 1.158-7.474 5.964-17.67 15.213-25.559 0 0-39.421 22.835-20.356 56.115C16.022 76.695 28.305 81.73 35.726 82.88z" fill="#ffffff" data-fill-palette-color="accent"></path><path d="M90.432 35.718c-5.738-10.955-17.822-16.45-25.194-17.879-8.554-1.659-17.141-0.125-23.557 4.208-4.931 3.331-8.217 8.108-9.254 13.456-1.094 5.64 0.004 11.261 3.092 15.83 0.863 1.282 1.854 2.431 2.946 3.441-0.894-2.257-1.084-4.859-0.542-7.652 2.257-11.64 14.196-19.151 26.615-16.744 5.99 1.161 11.324 4.816 15.019 10.289 4.693 6.949 6.363 16.204 4.583 25.392-1.44 7.423-6.626 17.431-16.167 24.966C67.973 91.025 108.228 69.694 90.432 35.718z" fill="#ffffff" data-fill-palette-color="accent"></path></svg></g></svg></g></svg></g><defs></defs></svg><rect width="395.52" height="98.70835384049042" fill="none" stroke="none" visibility="hidden"></rect></g></svg></g></svg>